# xmcd CD database file
#
# Track frame offsets:
#	150
#	12912
#	49235
#	62080
#	78015
#	90310
#	100600
#	130867
#	158047
#	175307
#	189247
#
# Disc length: 2680 seconds
#
# Revision: 2
# Processed by: cddbd v1.5.2PL0 Copyright (c) Steve Scherf et al.
# Submitted via: CDex 1.50beta10
#
DISCID=780a760b
DTITLE=Jimi Hendrix and The Lonnie Youngblood Band - Rare Hendrix
DYEAR=1996
DGENRE=Rock
TTITLE0=Go Go Shoes
TTITLE1=Red House
TTITLE2=Wipe The Sweat - Part One
TTITLE3=Wipe The Sweat - Part Two
TTITLE4=Wipe The Sweat - Part Segway
TTITLE5=Groove Maker
TTITLE6=People Peoples
TTITLE7=Blues Blues
TTITLE8=Lime Lime
TTITLE9=Whoa Ehh'
TTITLE10=She's A Fox
EXTD=YEAR: 1996
EXTT0=
EXTT1=
EXTT2=
EXTT3=
EXTT4=
EXTT5=
EXTT6=
EXTT7=
EXTT8=
EXTT9=
EXTT10=
PLAYORDER=
